<svg xmlns="http://www.w3.org/2000/svg" xmlns:xlink="http://www.w3.org/1999/xlink" width="385" zoomAndPan="magnify" viewBox="0 0 288.75 76.499998" height="102" preserveAspectRatio="xMidYMid meet" version="1.0"><defs><g/></defs><g fill="#006b37" fill-opacity="1"><g transform="translate(15.189216, 51.413957)"><g><path d="M 20.53125 -22.734375 L 25.109375 -17.65625 L 8.578125 -0.625 C 6.328125 -2.738281 4.695312 -5.269531 3.6875 -8.21875 C 2.675781 -11.175781 2.550781 -14.164062 3.3125 -17.1875 C 4.082031 -20.21875 5.59375 -22.804688 7.84375 -24.953125 C 10.09375 -27.097656 12.726562 -28.570312 15.75 -29.375 C 18.257812 -30.050781 20.835938 -30.222656 23.484375 -29.890625 C 26.140625 -29.566406 28.53125 -28.582031 30.65625 -26.9375 C 32.78125 -25.300781 34.359375 -23.257812 35.390625 -20.8125 C 36.421875 -18.375 36.976562 -15.847656 37.0625 -13.234375 C 37.082031 -10.878906 36.8125 -8.5625 36.25 -6.28125 C 35.695312 -4.007812 34.800781 -1.90625 33.5625 0.03125 L 25.921875 -3.1875 C 26.878906 -4.707031 27.632812 -6.347656 28.1875 -8.109375 C 28.75 -9.867188 29.054688 -11.664062 29.109375 -13.5 C 29.023438 -15.101562 28.695312 -16.648438 28.125 -18.140625 C 27.5625 -19.628906 26.738281 -20.957031 25.65625 -22.125 C 24.800781 -23.019531 23.785156 -23.660156 22.609375 -24.046875 C 21.429688 -24.441406 20.226562 -24.53125 19 -24.3125 C 17.769531 -24.09375 16.632812 -23.695312 15.59375 -23.125 C 14.195312 -22.40625 12.929688 -21.472656 11.796875 -20.328125 C 10.660156 -19.191406 9.992188 -17.828125 9.796875 -16.234375 C 9.597656 -14.648438 9.941406 -13.15625 10.828125 -11.75 Z M 20.53125 -22.734375 "/></g></g></g><g fill="#006b37" fill-opacity="1"><g transform="translate(54.925592, 51.413957)"><g><path d="M 6.984375 -30.03125 L 14.9375 -29.21875 C 14.113281 -26.738281 13.363281 -24.253906 12.6875 -21.765625 C 11.8125 -18.398438 10.972656 -15.0625 10.171875 -11.75 C 10.972656 -12.320312 11.867188 -12.695312 12.859375 -12.875 C 13.859375 -13.0625 14.863281 -13.113281 15.875 -13.03125 C 17.1875 -12.800781 18.300781 -12.210938 19.21875 -11.265625 C 20.144531 -10.328125 20.890625 -9.273438 21.453125 -8.109375 C 21.816406 -7.359375 22.484375 -6.738281 23.453125 -6.25 C 24.421875 -5.757812 25.289062 -5.609375 26.0625 -5.796875 C 26.84375 -5.992188 27.570312 -6.285156 28.25 -6.671875 C 29.175781 -7.242188 30.015625 -7.929688 30.765625 -8.734375 C 31.515625 -9.535156 32.210938 -10.390625 32.859375 -11.296875 L 40.046875 -7.453125 C 38.648438 -5.609375 37.039062 -3.992188 35.21875 -2.609375 C 33.394531 -1.234375 31.613281 -0.164062 29.875 0.59375 C 28.144531 1.363281 26.113281 1.757812 23.78125 1.78125 C 22.382812 1.707031 21.125 1.285156 20 0.515625 C 18.875 -0.242188 17.867188 -1.140625 16.984375 -2.171875 C 16.109375 -3.203125 14.945312 -4.910156 13.5 -7.296875 C 12.101562 -7.035156 10.941406 -6.164062 10.015625 -4.6875 C 9.023438 -3.113281 8.390625 -1.226562 8.109375 0.96875 L 1.75 -0.625 C 2.5 -5.28125 3.234375 -9.945312 3.953125 -14.625 C 4.734375 -19.769531 5.742188 -24.90625 6.984375 -30.03125 Z M 6.984375 -30.03125 "/></g></g></g><g fill="#006b37" fill-opacity="1"><g transform="translate(94.661968, 51.413957)"><g><path d="M 0.625 -23.984375 L 14.625 -24.796875 L 15.40625 -19.40625 C 13.59375 -16.632812 12.582031 -13.609375 12.375 -10.328125 C 12.300781 -9.390625 12.457031 -8.492188 12.84375 -7.640625 C 13.226562 -6.785156 13.832031 -6.140625 14.65625 -5.703125 C 15.488281 -5.265625 16.367188 -5.035156 17.296875 -5.015625 C 18.234375 -5.003906 19.113281 -5.21875 19.9375 -5.65625 C 20.769531 -6.101562 21.34375 -6.765625 21.65625 -7.640625 C 21.96875 -8.523438 22.109375 -9.421875 22.078125 -10.328125 C 22.078125 -14.460938 21.082031 -18.328125 19.09375 -21.921875 L 21.296875 -26.703125 C 24.242188 -24.960938 27.425781 -23.742188 30.84375 -23.046875 C 33.59375 -22.429688 36.398438 -22.160156 39.265625 -22.234375 L 39.109375 -15.09375 C 36.890625 -15.039062 34.71875 -15.3125 32.59375 -15.90625 C 30.363281 -16.289062 28.242188 -16.976562 26.234375 -17.96875 C 26.898438 -16.78125 27.398438 -15.519531 27.734375 -14.1875 C 28.078125 -12.851562 28.3125 -11.515625 28.4375 -10.171875 C 28.625 -8.066406 28.207031 -6.101562 27.1875 -4.28125 C 26.164062 -2.457031 24.726562 -1.054688 22.875 -0.078125 C 21.019531 0.898438 19.0625 1.351562 17 1.28125 C 15.257812 1.28125 13.570312 0.9375 11.9375 0.25 C 10.3125 -0.4375 9.035156 -1.53125 8.109375 -3.03125 C 7.179688 -4.53125 6.703125 -6.171875 6.671875 -7.953125 C 6.460938 -11.578125 7.148438 -15.019531 8.734375 -18.28125 L 1.125 -17.65625 Z M 26.65625 -26.546875 L 27.46875 -33.21875 L 30.5 -32.78125 L 29.765625 -26.03125 Z M 31.890625 -26.3125 L 32.859375 -33.140625 L 35.96875 -32.78125 L 35.15625 -25.765625 Z M 31.890625 -26.3125 "/></g></g></g><g fill="#006b37" fill-opacity="1"><g transform="translate(134.404162, 51.413957)"><g><path d="M 5.3125 -29.25 L 12.609375 -28.640625 C 11.703125 -23.984375 11.492188 -19.3125 11.984375 -14.625 L 15.328125 -18.46875 L 18.15625 -13.03125 L 11.171875 -5.125 L 6.40625 -6.359375 C 5.8125 -8.203125 5.414062 -10.078125 5.21875 -11.984375 C 5.019531 -13.898438 4.898438 -15.816406 4.859375 -17.734375 C 4.828125 -19.648438 4.847656 -21.570312 4.921875 -23.5 C 5.003906 -25.425781 5.132812 -27.34375 5.3125 -29.25 Z M 19.5625 4.578125 L 22.96875 -33.71875 L 30 -33.40625 L 26.734375 4.890625 Z M 19.5625 4.578125 "/></g></g></g><g fill="#006b37" fill-opacity="1"><g transform="translate(168.940661, 51.413957)"><g><path d="M 4.890625 -25.578125 L 12.109375 -24.5625 C 11.304688 -20.707031 10.929688 -16.390625 10.984375 -11.609375 L 14.046875 -16.03125 L 19.671875 -13 L 10.25 -2.328125 L 5.515625 -4.390625 C 5.066406 -5.734375 4.789062 -7.15625 4.6875 -8.65625 C 4.4375 -11.5 4.347656 -14.367188 4.421875 -17.265625 C 4.503906 -20.160156 4.660156 -22.929688 4.890625 -25.578125 Z M 27.359375 -24.59375 L 33.953125 -25.921875 C 34.578125 -22.941406 35.1875 -19.914062 35.78125 -16.84375 C 36.375 -13.351562 36.835938 -9.960938 37.171875 -6.671875 L 30 -5.9375 C 29.6875 -9.007812 29.320312 -12.191406 28.90625 -15.484375 C 28.4375 -18.585938 27.921875 -21.625 27.359375 -24.59375 Z M 27.359375 -24.59375 "/></g></g></g><g fill="#006b37" fill-opacity="1"><g transform="translate(208.677037, 51.413957)"><g><path d="M 3.765625 -27.515625 C 6.222656 -27.898438 8.707031 -28.222656 11.21875 -28.484375 C 13.726562 -28.742188 16.242188 -28.910156 18.765625 -28.984375 C 21.285156 -29.066406 23.800781 -28.953125 26.3125 -28.640625 L 27.3125 -23.390625 L 17.109375 -14.984375 L 12.875 -19.4375 L 16.640625 -22.234375 C 12.535156 -22.160156 8.460938 -21.671875 4.421875 -20.765625 Z M 4.3125 -6.71875 C 8.082031 -6.125 11.910156 -5.835938 15.796875 -5.859375 C 20.109375 -5.929688 24.425781 -6.359375 28.75 -7.140625 L 29.03125 0 C 24.5 0.726562 19.957031 1.078125 15.40625 1.046875 C 11.5 1.046875 7.65625 0.671875 3.875 -0.078125 Z M 4.3125 -6.71875 "/></g></g></g><g fill="#006b37" fill-opacity="1"><g transform="translate(240.807622, 51.413957)"><g><path d="M 7.796875 -32.328125 L 6.75 -25.578125 L 24.140625 -24.375 L 24.984375 -30.65625 Z M 3.03125 -16.453125 L 4.109375 -9.703125 C 5.046875 -10.191406 6 -10.648438 6.96875 -11.078125 C 7.9375 -11.503906 8.925781 -11.921875 9.9375 -12.328125 C 10.945312 -12.742188 11.941406 -13.144531 12.921875 -13.53125 C 13.898438 -13.925781 14.945312 -14.203125 16.0625 -14.359375 C 16.738281 -14.410156 17.425781 -14.316406 18.125 -14.078125 C 18.820312 -13.847656 19.34375 -13.414062 19.6875 -12.78125 C 20.039062 -12.144531 20.164062 -11.476562 20.0625 -10.78125 C 19.882812 -9.488281 19.507812 -8.28125 18.9375 -7.15625 C 18.363281 -6.03125 17.738281 -4.929688 17.0625 -3.859375 C 16.394531 -2.785156 15.6875 -1.742188 14.9375 -0.734375 C 14.1875 0.273438 13.398438 1.269531 12.578125 2.25 L 19.640625 4.03125 C 20.984375 2.71875 22.207031 1.3125 23.3125 -0.1875 C 24.425781 -1.6875 25.390625 -3.296875 26.203125 -5.015625 C 27.023438 -6.742188 27.523438 -8.566406 27.703125 -10.484375 C 27.804688 -11.828125 27.734375 -13.1875 27.484375 -14.5625 C 27.242188 -15.945312 26.671875 -17.1875 25.765625 -18.28125 C 24.859375 -19.382812 23.722656 -20.144531 22.359375 -20.5625 C 21.003906 -20.976562 19.65625 -21.160156 18.3125 -21.109375 C 16.5 -21.035156 14.726562 -20.765625 13 -20.296875 C 11.269531 -19.828125 9.566406 -19.269531 7.890625 -18.625 C 6.222656 -17.976562 4.601562 -17.253906 3.03125 -16.453125 Z M 3.03125 -16.453125 "/></g></g></g></svg>