<?xml version="1.0" standalone="no"?>
<!DOCTYPE svg PUBLIC "-//W3C//DTD SVG 20010904//EN"
 "http://www.w3.org/TR/2001/REC-SVG-20010904/DTD/svg10.dtd">
<svg version="1.0" xmlns="http://www.w3.org/2000/svg"
 width="1128.000000pt" height="1128.000000pt" viewBox="0 0 1128.000000 1128.000000"
 preserveAspectRatio="xMidYMid meet">
<metadata>
Created by potrace 1.14, written by Peter Selinger 2001-2017
</metadata>
<g transform="translate(0.000000,1128.000000) scale(0.100000,-0.100000)"
fill="#000000" stroke="none">
<path d="M127 8196 c3 -4 -3 -5 -13 -2 -16 5 -19 0 -20 -29 -1 -32 6 -40 29
-36 4 0 7 -3 7 -8 0 -5 16 -5 38 0 21 5 38 4 40 -1 2 -5 13 -5 26 0 12 4 28 5
35 1 7 -5 31 -5 54 0 23 4 43 3 45 -1 2 -5 13 -5 26 0 12 4 28 5 35 1 7 -5 31
-5 54 0 23 4 43 3 45 -1 2 -5 13 -5 26 0 12 4 29 5 36 0 7 -5 23 -4 35 0 14 5
27 4 34 -3 8 -8 11 -7 11 3 0 11 3 11 12 2 7 -7 17 -8 28 -2 9 5 22 5 30 0 7
-5 25 -4 39 2 17 6 27 6 29 -1 2 -6 14 -6 33 -1 17 5 29 5 29 0 0 -6 10 -6 25
0 14 5 27 5 30 0 3 -5 18 -5 35 0 19 5 30 5 30 -1 0 -6 6 -7 12 -3 11 7 53 10
61 4 9 -7 37 -7 37 0 0 10 20 8 38 -3 7 -5 12 -3 12 4 0 10 3 10 12 1 7 -7 17
-8 28 -2 9 5 22 5 30 0 7 -5 25 -4 39 2 17 6 27 6 29 -1 2 -6 14 -6 33 -1 17
5 29 5 29 0 0 -6 10 -6 25 0 14 5 27 5 30 0 3 -5 18 -5 35 0 19 5 30 5 30 -1
0 -6 6 -7 12 -3 11 7 53 10 61 4 9 -7 37 -7 37 0 0 10 20 8 38 -3 7 -5 12 -3
12 4 0 8 4 8 13 1 8 -7 18 -7 27 -2 8 5 21 5 29 1 9 -5 25 -5 36 0 27 11 37
11 31 0 -4 -5 9 -6 29 -1 21 5 35 4 35 -2 0 -5 5 -6 12 -2 16 10 58 12 64 2 3
-4 17 -3 32 3 18 7 28 7 30 0 2 -6 12 -7 26 -1 12 4 28 5 35 1 7 -5 31 -5 54
0 23 4 43 3 45 -1 2 -5 13 -5 26 0 12 4 28 5 35 1 7 -5 31 -5 54 0 23 4 43 3
45 -1 2 -5 13 -5 26 0 12 4 28 5 35 1 7 -5 31 -5 54 0 23 4 43 3 45 -1 2 -5
13 -5 26 0 12 4 28 5 35 1 7 -5 31 -5 54 0 23 4 43 3 45 -1 2 -5 13 -5 26 0
12 4 28 5 35 1 7 -5 31 -5 54 0 23 4 43 3 45 -1 2 -5 13 -5 26 0 12 4 28 5 35
1 7 -5 31 -5 54 0 23 4 43 3 45 -1 2 -5 13 -5 26 0 12 4 28 5 35 1 7 -5 31 -5
54 0 23 4 43 3 45 -1 2 -5 13 -5 26 0 12 4 29 5 36 0 7 -5 23 -4 35 0 14 5 27
4 34 -3 8 -8 11 -7 11 3 0 11 3 11 12 2 7 -7 17 -8 28 -2 9 5 22 5 30 0 7 -5
25 -4 39 2 17 6 27 6 29 -1 2 -6 14 -6 33 -1 17 5 29 5 29 0 0 -6 10 -6 25 0
14 5 27 5 30 0 3 -5 18 -5 35 0 19 5 30 5 30 -1 0 -6 6 -7 12 -3 11 7 53 10
61 4 9 -7 37 -7 37 0 0 10 20 8 38 -3 7 -5 12 -3 12 4 0 10 3 10 12 1 7 -7 17
-8 28 -2 9 5 22 5 30 0 7 -5 25 -4 39 2 17 6 27 6 29 -1 2 -6 14 -6 33 -1 17
5 29 5 29 0 0 -6 10 -6 25 0 14 5 27 5 30 0 3 -5 18 -5 35 0 19 5 30 5 30 -1
0 -6 6 -7 12 -3 11 7 53 10 61 4 9 -7 37 -7 37 0 0 10 20 8 38 -3 7 -5 12 -3
12 4 0 8 4 8 13 1 8 -7 18 -7 27 -2 8 5 21 5 29 1 9 -5 25 -5 36 0 27 11 37
11 31 0 -4 -5 9 -6 29 -1 21 5 35 4 35 -2 0 -5 5 -6 12 -2 16 10 58 12 64 2 3
-4 17 -3 32 3 18 7 28 7 30 0 2 -6 12 -7 26 -1 12 4 28 5 35 1 7 -5 31 -5 54
0 23 4 43 3 45 -1 2 -5 13 -5 26 0 12 4 28 5 35 1 7 -5 31 -5 54 0 23 4 43 3
45 -1 2 -5 13 -5 26 0 12 4 28 5 35 1 7 -5 31 -5 54 0 23 4 43 3 45 -1 2 -5
13 -5 26 0 12 4 28 5 35 0 7 -4 28 -4 47 0 20 5 34 4 34 -2 0 -5 6 -6 12 -2
11 7 53 10 61 4 9 -7 37 -7 37 0 0 10 20 8 38 -3 7 -5 12 -3 12 4 0 10 3 10
12 1 7 -7 17 -8 28 -2 9 5 22 5 30 0 7 -5 25 -4 39 2 17 6 27 6 29 -1 2 -6 14
-6 33 -1 17 5 29 5 29 0 0 -6 10 -6 25 0 14 5 27 5 30 0 3 -5 18 -5 35 0 19 5
30 5 30 -1 0 -6 6 -7 12 -3 17 11 48 12 48 3 0 -4 14 -4 30 1 19 5 30 5 30 -1
0 -6 8 -5 20 1 14 8 20 8 20 0 0 -6 5 -8 12 -4 11 7 53 10 61 4 9 -7 37 -7 37
0 0 10 20 8 38 -3 7 -5 12 -3 12 4 0 10 3 10 12 1 7 -7 17 -8 28 -2 9 5 22 5
30 0 7 -5 25 -4 39 2 17 6 27 6 29 -1 2 -6 14 -6 33 -1 17 5 29 5 29 0 0 -6
10 -6 25 0 14 5 27 5 30 0 3 -5 18 -5 35 0 19 5 30 5 30 -1 0 -6 6 -7 12 -3
16 10 50 10 66 0 6 -4 17 -4 24 0 17 11 58 11 58 1 0 -4 6 -5 12 -1 11 7 53
10 61 4 9 -7 37 -7 37 0 0 10 20 8 38 -3 7 -5 12 -3 12 4 0 10 3 10 12 1 7 -7
17 -8 28 -2 9 5 22 5 30 0 7 -5 25 -4 39 2 17 6 27 6 29 -1 2 -6 14 -6 33 -1
17 5 29 5 29 0 0 -6 10 -6 25 0 14 5 27 5 30 0 3 -5 18 -5 35 0 19 5 30 5 30
-1 0 -6 6 -7 12 -3 17 11 48 12 48 3 0 -4 13 -4 30 1 19 5 30 5 30 -1 0 -6 8
-5 20 1 14 8 20 8 20 0 0 -6 5 -8 12 -4 11 7 53 10 61 4 9 -7 37 -7 37 0 0 10
20 8 38 -3 7 -5 12 -3 12 4 0 10 3 10 12 1 7 -7 17 -8 28 -2 9 5 22 5 30 0 7
-5 25 -4 39 2 17 6 27 6 29 -1 2 -6 14 -6 33 -1 17 5 29 5 29 0 0 -6 10 -6 25
0 14 5 27 5 30 0 3 -5 18 -5 35 0 19 5 30 5 30 -1 0 -6 6 -7 12 -3 16 10 50
10 66 0 7 -4 18 -3 25 2 20 17 23 17 40 3 14 -11 17 -11 17 0 0 10 3 10 12 1
7 -7 17 -8 28 -2 9 5 22 5 30 0 7 -5 25 -4 39 2 17 6 27 6 29 -1 2 -6 14 -6
33 -1 17 5 29 5 29 0 0 -6 10 -6 25 0 14 5 27 5 30 0 3 -5 18 -5 35 0 19 5 30
5 30 -1 0 -6 6 -7 12 -3 11 7 53 10 61 4 9 -7 37 -7 37 0 0 10 20 8 38 -3 7
-5 12 -3 12 4 0 10 3 10 12 1 7 -7 17 -8 28 -2 9 5 22 5 30 0 7 -5 25 -4 39 2
17 6 27 6 29 -1 2 -6 14 -6 33 -1 17 5 29 5 29 0 0 -6 10 -6 25 0 14 5 27 5
30 0 3 -5 18 -5 35 0 19 5 30 5 30 -1 0 -6 6 -7 12 -3 11 7 53 10 61 4 9 -7
37 -7 37 0 0 10 20 8 38 -3 7 -5 12 -3 12 4 0 8 4 8 13 1 8 -7 18 -7 27 -2 8
5 21 5 29 1 9 -5 25 -5 36 0 27 11 37 11 31 0 -4 -5 9 -6 29 -1 21 5 35 4 35
-2 0 -5 5 -6 12 -2 16 10 58 12 64 2 3 -4 17 -3 32 3 18 7 28 7 30 0 2 -6 12
-7 26 -1 12 4 28 5 35 1 7 -5 31 -5 54 0 23 4 43 3 45 -1 2 -5 13 -5 26 0 12
4 28 5 35 1 7 -5 31 -5 54 0 23 4 43 3 45 -1 2 -5 13 -5 26 0 12 4 28 5 35 1
7 -5 31 -5 54 0 23 4 43 3 45 -1 2 -5 13 -5 26 0 12 4 29 5 36 0 7 -5 23 -4
35 0 14 5 27 4 34 -3 8 -8 11 -7 11 3 0 11 3 11 12 2 7 -7 17 -8 28 -2 9 5 22
5 30 0 7 -5 25 -4 39 2 17 6 27 6 29 -1 2 -6 14 -6 33 -1 17 5 29 5 29 0 0 -6
10 -6 25 0 14 5 27 5 30 0 3 -5 18 -5 35 0 19 5 30 5 30 -1 0 -6 6 -7 12 -3
11 7 53 10 61 4 9 -7 37 -7 37 0 0 10 20 8 38 -3 7 -5 12 -3 12 4 0 10 3 10
12 1 7 -7 17 -8 28 -2 9 5 22 5 30 0 7 -5 25 -4 39 2 17 6 27 6 29 -1 2 -6 14
-6 33 -1 17 5 29 5 29 0 0 -6 10 -6 25 0 14 5 27 5 30 0 3 -5 18 -5 35 0 19 5
30 5 30 -1 0 -6 6 -7 12 -3 11 7 53 10 61 4 9 -7 37 -7 37 0 0 10 20 8 38 -3
7 -5 12 -3 12 4 0 8 4 8 13 1 8 -7 18 -7 27 -2 8 5 21 5 29 1 9 -5 25 -5 36 0
27 11 37 11 31 0 -4 -5 9 -6 29 -1 21 5 35 4 35 -2 0 -5 5 -6 12 -2 16 10 58
12 64 2 3 -4 17 -3 32 3 18 7 28 7 30 0 2 -6 12 -7 26 -1 12 4 28 5 35 1 7 -5
31 -5 54 0 23 4 43 4 45 0 1 -4 15 -6 31 -3 23 3 30 10 33 33 3 16 1 29 -3 29
-5 0 -5 8 -2 18 6 15 5 15 -10 3 -11 -8 -17 -9 -17 -2 0 7 -8 8 -25 1 -13 -5
-27 -6 -29 -1 -6 9 -37 8 -54 -3 -6 -4 -18 -4 -24 0 -16 10 -50 10 -66 0 -6
-4 -12 -3 -12 2 0 6 -14 7 -35 2 -19 -4 -37 -5 -39 -1 -6 9 -48 7 -64 -3 -7
-4 -18 -4 -24 0 -16 10 -50 10 -66 0 -6 -4 -12 -3 -12 2 0 6 -14 7 -34 2 -19
-4 -40 -4 -47 1 -7 4 -21 3 -30 -2 -12 -6 -20 -5 -24 1 -5 8 -11 8 -19 1 -9
-7 -16 -7 -24 1 -9 9 -12 9 -12 -1 0 -10 -3 -11 -13 -2 -10 7 -17 7 -24 0 -7
-7 -13 -7 -17 -1 -4 7 -17 7 -36 2 -16 -5 -32 -5 -34 -1 -6 9 -48 7 -64 -3 -7
-4 -18 -4 -24 0 -16 10 -50 10 -66 0 -6 -4 -12 -3 -12 2 0 6 -14 7 -34 2 -19
-4 -40 -4 -47 1 -7 4 -21 3 -30 -2 -12 -6 -20 -5 -24 1 -5 8 -11 8 -19 1 -9
-7 -16 -7 -24 1 -9 9 -12 9 -12 -1 0 -10 -3 -11 -13 -2 -10 7 -17 7 -24 0 -7
-7 -13 -7 -17 -1 -4 7 -17 7 -36 2 -16 -5 -32 -5 -34 -1 -6 9 -48 7 -64 -3 -7
-4 -18 -4 -24 0 -16 10 -50 10 -66 0 -6 -4 -12 -3 -12 2 0 6 -14 7 -34 2 -19
-4 -37 -5 -40 -2 -9 9 -51 8 -63 -1 -9 -6 -19 -5 -30 4 -9 8 -17 13 -17 12 -4
-8 -56 -20 -60 -14 -6 9 -37 8 -54 -3 -6 -4 -18 -4 -24 0 -7 5 -22 8 -33 8
-11 0 -26 -3 -33 -8 -6 -4 -12 -3 -12 1 0 10 -41 10 -58 -1 -7 -4 -20 -2 -29
6 -9 7 -17 12 -17 11 -4 -8 -56 -20 -60 -14 -6 9 -37 8 -54 -3 -6 -4 -18 -4
-24 0 -7 5 -22 8 -33 8 -11 0 -26 -3 -33 -8 -6 -4 -12 -3 -12 2 0 6 -14 7 -35
2 -19 -4 -37 -5 -39 -1 -6 9 -48 7 -64 -3 -7 -4 -18 -4 -24 0 -16 10 -50 10
-66 0 -6 -4 -12 -3 -12 2 0 6 -14 7 -34 2 -19 -4 -40 -4 -47 1 -7 4 -21 3 -30
-2 -12 -6 -20 -5 -24 1 -5 8 -11 8 -19 1 -9 -7 -16 -7 -24 1 -9 9 -12 9 -12
-1 0 -10 -3 -11 -13 -2 -10 7 -17 7 -24 0 -7 -7 -13 -7 -17 -1 -4 7 -17 7 -36
2 -16 -5 -32 -5 -34 -1 -6 9 -48 7 -64 -3 -7 -4 -18 -4 -24 0 -7 5 -22 8 -33
8 -11 0 -26 -3 -33 -8 -6 -4 -12 -3 -12 2 0 6 -14 7 -34 2 -19 -4 -40 -4 -47
1 -7 4 -21 3 -30 -2 -12 -6 -20 -5 -24 1 -5 8 -11 8 -19 1 -9 -7 -16 -7 -24 1
-9 9 -12 9 -12 -1 0 -10 -3 -11 -13 -2 -10 7 -17 7 -24 0 -7 -7 -13 -7 -17 -1
-4 7 -17 7 -36 2 -16 -5 -32 -5 -34 -1 -6 9 -48 7 -64 -3 -7 -4 -18 -4 -24 0
-7 5 -22 8 -33 8 -11 0 -26 -3 -33 -8 -6 -4 -12 -3 -12 2 0 6 -14 7 -34 2 -19
-4 -40 -4 -47 1 -7 4 -21 3 -30 -2 -12 -6 -20 -5 -24 1 -5 8 -11 8 -19 1 -9
-7 -16 -7 -24 1 -9 9 -12 9 -12 -1 0 -10 -3 -11 -13 -2 -10 7 -17 7 -24 0 -7
-7 -13 -7 -17 -1 -4 7 -17 7 -36 2 -16 -5 -32 -5 -34 -1 -6 9 -48 7 -64 -3 -7
-4 -18 -4 -24 0 -16 10 -50 10 -66 0 -6 -4 -12 -3 -12 2 0 6 -14 7 -34 2 -19
-4 -40 -4 -47 1 -7 4 -21 3 -30 -2 -12 -6 -20 -5 -24 1 -5 8 -11 8 -19 1 -9
-7 -16 -7 -24 1 -9 9 -12 9 -12 -1 0 -10 -3 -11 -14 -2 -10 9 -16 9 -21 1 -5
-8 -10 -8 -20 0 -10 8 -15 8 -20 0 -5 -8 -10 -8 -20 0 -10 8 -15 8 -20 0 -5
-8 -10 -8 -20 0 -10 8 -15 8 -20 0 -5 -8 -11 -8 -19 -1 -9 7 -16 7 -23 0 -7
-7 -13 -7 -17 -1 -4 7 -17 7 -36 2 -16 -5 -32 -5 -34 -1 -6 9 -48 7 -64 -3 -7
-4 -18 -4 -24 0 -7 5 -22 8 -33 8 -11 0 -26 -3 -33 -8 -6 -4 -12 -3 -12 2 0 6
-14 7 -34 2 -19 -4 -40 -4 -47 1 -7 4 -21 3 -30 -2 -12 -6 -20 -5 -24 1 -5 8
-11 8 -19 1 -9 -7 -16 -7 -24 1 -9 9 -12 9 -12 -1 0 -10 -3 -11 -14 -2 -10 9
-16 9 -21 1 -5 -7 -11 -8 -19 -1 -7 6 -17 6 -26 1 -9 -5 -19 -5 -26 1 -8 7
-14 6 -19 -1 -5 -8 -11 -8 -21 1 -11 9 -14 9 -14 -1 0 -9 -3 -10 -13 -1 -10 7
-17 7 -24 0 -7 -7 -13 -7 -17 -1 -4 7 -17 7 -36 2 -16 -5 -32 -5 -34 -1 -6 9
-48 7 -64 -3 -7 -4 -18 -4 -24 0 -7 5 -22 8 -33 8 -11 0 -26 -3 -33 -8 -6 -4
-12 -3 -12 2 0 6 -14 7 -34 2 -19 -4 -40 -4 -47 1 -7 4 -21 3 -30 -2 -12 -6
-20 -5 -24 1 -5 8 -11 8 -19 1 -9 -7 -16 -7 -24 1 -9 9 -12 9 -12 -1 0 -10 -3
-11 -14 -2 -10 9 -16 9 -21 1 -5 -8 -10 -8 -20 0 -10 8 -15 8 -20 0 -5 -8 -10
-8 -20 0 -10 8 -15 8 -20 0 -5 -8 -10 -8 -20 0 -10 8 -15 8 -20 0 -5 -8 -11
-8 -19 -1 -9 7 -16 7 -23 0 -7 -7 -13 -7 -17 -1 -4 7 -17 7 -36 2 -16 -5 -32
-5 -34 -1 -6 9 -48 7 -64 -3 -7 -4 -18 -4 -24 0 -7 5 -22 8 -33 8 -11 0 -26
-3 -33 -8 -6 -4 -12 -3 -12 2 0 6 -14 7 -34 2 -19 -4 -40 -4 -47 1 -7 4 -20 4
-29 -1 -11 -6 -21 -5 -27 1 -8 8 -13 7 -18 -1 -5 -8 -10 -8 -21 1 -11 9 -14 9
-14 -1 0 -10 -3 -10 -14 -1 -10 9 -16 9 -21 1 -4 -6 -12 -7 -18 -3 -15 10 -38
10 -55 -1 -7 -4 -18 -3 -25 2 -14 12 -25 12 -54 1 -12 -4 -25 -5 -27 0 -6 9
-37 8 -54 -3 -6 -4 -18 -4 -24 0 -7 5 -22 8 -33 8 -11 0 -26 -3 -33 -8 -6 -4
-12 -3 -12 1 0 10 -41 10 -58 -1 -7 -4 -20 -2 -29 6 -9 7 -19 11 -22 9 -20
-12 -51 -19 -55 -12 -6 9 -37 8 -54 -3 -6 -4 -18 -4 -24 0 -7 5 -22 8 -33 8
-11 0 -26 -3 -33 -8 -6 -4 -12 -3 -12 2 0 6 -14 7 -35 2 -19 -4 -37 -5 -39 -1
-6 9 -48 7 -64 -3 -7 -4 -18 -4 -24 0 -7 5 -22 8 -33 8 -11 0 -26 -3 -33 -8
-6 -4 -12 -3 -12 2 0 6 -14 7 -34 2 -19 -4 -40 -4 -47 1 -7 4 -21 3 -30 -2
-12 -6 -20 -5 -24 1 -5 8 -11 8 -19 1 -9 -7 -16 -7 -24 1 -9 9 -12 9 -12 -1 0
-10 -3 -11 -13 -2 -10 7 -17 7 -24 0 -7 -7 -13 -7 -17 -1 -4 7 -17 7 -36 2
-16 -5 -32 -5 -34 -1 -6 9 -48 7 -64 -3 -7 -4 -18 -4 -24 0 -7 5 -22 8 -33 8
-11 0 -26 -3 -33 -8 -6 -4 -12 -3 -12 2 0 6 -14 7 -34 2 -19 -4 -40 -4 -47 1
-7 4 -21 3 -30 -2 -12 -6 -20 -5 -24 1 -5 8 -11 8 -19 1 -9 -7 -16 -7 -24 1
-9 9 -12 9 -12 -1 0 -10 -3 -11 -13 -2 -10 7 -17 7 -24 0 -7 -7 -13 -7 -17 -1
-4 7 -17 7 -36 2 -16 -5 -32 -5 -34 -1 -6 9 -48 7 -64 -3 -7 -4 -18 -4 -24 0
-7 5 -22 8 -33 8 -11 0 -26 -3 -33 -8 -6 -4 -12 -3 -12 2 0 6 -14 7 -34 2 -19
-4 -37 -5 -40 -2 -9 9 -51 8 -63 -1 -7 -5 -18 -5 -25 -1 -17 11 -29 12 -55 2
-12 -4 -25 -4 -27 1 -6 9 -37 8 -54 -3 -6 -4 -18 -4 -24 0 -7 5 -22 8 -33 8
-11 0 -26 -3 -33 -8 -6 -4 -12 -3 -12 1 0 10 -41 10 -58 -1 -7 -4 -18 -4 -24
1 -17 10 -29 11 -55 1 -12 -4 -25 -4 -27 1 -6 9 -37 8 -54 -3 -6 -4 -18 -4
-24 0 -7 5 -22 8 -33 8 -11 0 -26 -3 -33 -8 -6 -4 -12 -3 -12 1 0 10 -41 10
-58 -1 -7 -4 -18 -3 -25 2 -17 14 -19 15 -49 3 -15 -6 -30 -7 -32 -2 -6 9 -37
8 -54 -3 -6 -4 -18 -4 -24 0 -7 5 -22 8 -33 8 -11 0 -26 -3 -33 -8 -6 -4 -12
-3 -12 1 0 10 -41 10 -58 -1 -7 -4 -20 -2 -29 6 -9 7 -19 11 -22 9 -20 -12
-51 -19 -55 -12 -6 9 -37 8 -54 -3 -6 -4 -18 -4 -24 0 -7 5 -22 8 -33 8 -11 0
-26 -3 -33 -8 -6 -4 -12 -3 -12 2 0 6 -14 7 -35 2 -19 -4 -37 -5 -39 -1 -6 9
-48 7 -64 -3 -7 -4 -18 -4 -24 0 -7 5 -22 8 -33 8 -11 0 -26 -3 -33 -8 -6 -4
-12 -3 -12 2 0 6 -14 7 -34 2 -19 -4 -40 -4 -47 1 -7 4 -21 3 -30 -2 -12 -6
-20 -5 -24 1 -5 8 -11 8 -19 1 -9 -7 -16 -7 -24 1 -9 9 -12 9 -12 -1 0 -10 -3
-11 -13 -2 -10 7 -17 7 -24 0 -7 -7 -13 -7 -17 -1 -4 7 -17 7 -36 2 -16 -5
-32 -5 -34 -1 -6 9 -48 7 -64 -3 -7 -4 -18 -4 -24 0 -7 5 -22 8 -33 8 -11 0
-26 -3 -33 -8 -6 -4 -12 -3 -12 2 0 6 -14 7 -34 2 -19 -4 -40 -4 -47 1 -7 4
-21 3 -30 -2 -12 -6 -20 -5 -24 1 -5 8 -11 8 -19 1 -9 -7 -16 -7 -24 1 -9 9
-12 9 -12 -1 0 -10 -3 -11 -13 -2 -10 7 -17 7 -24 0 -7 -7 -13 -7 -17 -1 -4 7
-17 7 -36 2 -16 -5 -32 -5 -34 -1 -6 9 -48 7 -64 -3 -7 -4 -18 -4 -24 0 -7 5
-22 8 -33 8 -11 0 -26 -3 -33 -8 -6 -4 -12 -3 -12 2 0 6 -14 7 -34 2 -19 -4
-37 -5 -40 -2 -9 9 -51 8 -63 -1 -9 -6 -19 -5 -30 4 -9 8 -19 12 -22 10 -20
-12 -51 -19 -55 -12 -6 9 -37 8 -54 -3 -6 -4 -18 -4 -24 0 -7 5 -22 8 -33 8
-11 0 -26 -3 -33 -8 -6 -4 -12 -3 -12 1 0 10 -41 10 -58 -1 -7 -4 -18 -4 -24
0 -7 5 -22 8 -33 8 -11 0 -26 -3 -33 -8 -6 -4 -12 -4 -12 1 0 4 -15 8 -34 8
-19 0 -32 -4 -29 -9z"/>
<path d="M201 7001 c-7 -5 -34 -8 -58 -6 -42 2 -44 0 -40 -22 2 -12 0 -23 -5
-23 -5 0 -5 -7 1 -17 6 -11 6 -24 0 -35 -6 -11 -5 -19 1 -23 8 -5 7 -11 -1
-21 -9 -11 -9 -14 0 -14 9 0 9 -6 0 -22 -7 -13 -13 -23 -13 -24 -1 0 5 -8 12
-17 9 -10 10 -17 2 -22 -6 -3 -7 -11 -3 -18 9 -15 10 -57 1 -57 -4 0 -4 -11 1
-23 5 -13 6 -30 1 -37 -4 -7 -6 -19 -3 -26 8 -22 9 -124 0 -124 -4 0 -3 -8 2
-18 6 -11 6 -24 0 -34 -6 -11 -5 -19 1 -23 8 -5 7 -11 -1 -21 -9 -11 -9 -14 0
-14 8 0 9 -6 3 -17 -10 -21 -10 -33 1 -50 4 -6 3 -14 -3 -18 -6 -4 -7 -11 -3
-18 9 -15 10 -57 1 -57 -4 0 -4 -11 1 -23 5 -13 6 -30 1 -37 -4 -7 -6 -19 -3
-26 8 -22 9 -124 0 -124 -4 0 -3 -8 2 -18 6 -11 6 -24 0 -34 -6 -11 -5 -19 1
-23 8 -5 7 -11 -1 -21 -9 -11 -9 -14 0 -14 9 0 9 -6 0 -22 -13 -24 -13 -26 2
-45 7 -7 6 -14 -1 -18 -6 -3 -7 -11 -3 -18 9 -15 10 -57 1 -57 -4 0 -4 -11 1
-23 5 -13 6 -30 1 -37 -4 -7 -6 -19 -3 -26 8 -22 9 -124 0 -124 -4 0 -3 -8 2
-18 6 -11 6 -24 0 -34 -6 -11 -5 -19 1 -23 8 -5 7 -11 -1 -21 -9 -11 -9 -14 0
-14 8 0 9 -6 3 -17 -10 -21 -10 -33 1 -50 4 -6 3 -14 -3 -18 -6 -4 -7 -11 -3
-18 9 -15 10 -57 1 -57 -4 0 -4 -11 1 -23 5 -13 6 -30 1 -37 -4 -7 -6 -19 -3
-26 8 -22 9 -124 0 -124 -4 0 -3 -8 2 -18 6 -11 6 -24 0 -34 -6 -11 -5 -19 1
-23 8 -5 7 -11 -1 -21 -9 -11 -9 -14 0 -14 9 0 9 -6 0 -22 -13 -24 -13 -26 2
-45 7 -7 6 -14 -1 -18 -6 -3 -7 -11 -3 -18 9 -15 10 -57 1 -57 -4 0 -4 -11 1
-23 5 -13 6 -30 1 -37 -4 -7 -6 -19 -3 -26 8 -22 9 -124 0 -124 -4 0 -3 -8 2
-18 6 -11 6 -24 0 -34 -6 -11 -5 -19 1 -23 8 -5 7 -11 -1 -21 -9 -11 -9 -14 0
-14 8 0 9 -6 3 -17 -10 -21 -10 -33 1 -50 4 -6 3 -14 -3 -18 -6 -4 -7 -11 -3
-18 9 -15 10 -57 1 -57 -4 0 -4 -11 1 -23 5 -13 6 -30 1 -37 -4 -7 -6 -19 -3
-26 8 -22 9 -124 0 -124 -4 0 -3 -8 2 -18 6 -11 6 -24 0 -34 -6 -11 -5 -19 1
-23 8 -5 7 -11 -1 -21 -9 -11 -9 -14 0 -14 8 0 9 -6 3 -17 -10 -21 -10 -33 1
-50 4 -6 3 -14 -3 -18 -6 -4 -7 -11 -3 -18 9 -15 10 -57 1 -57 -4 0 -4 -11 1
-23 5 -13 6 -30 1 -37 -4 -7 -6 -19 -3 -26 8 -22 9 -124 0 -124 -4 0 -3 -8 2
-18 6 -11 6 -24 0 -34 -6 -11 -5 -19 1 -23 8 -5 7 -11 -1 -21 -9 -11 -9 -14 0
-14 8 0 9 -6 3 -17 -10 -21 -10 -33 1 -50 4 -6 3 -14 -3 -18 -6 -4 -7 -11 -3
-18 9 -15 10 -57 1 -57 -4 0 -4 -11 1 -23 5 -13 5 -30 1 -37 -5 -8 -6 -18 -3
-23 3 -5 5 -38 4 -73 -1 -39 3 -65 10 -70 7 -4 10 -3 6 2 -3 6 480 9 1211 8
670 0 1222 1 1228 3 8 3 10 530 10 1853 -1 1225 2 1851 9 1854 6 3 6 5 0 5 -7
1 -10 33 -9 85 2 57 -2 86 -9 89 -7 2 -38 3 -69 3 -34 -1 -58 3 -58 9 0 5 -4
4 -9 -4 -6 -9 -10 -10 -16 -2 -4 8 -11 9 -18 2 -13 -10 -72 -10 -83 1 -3 4
-14 4 -23 -1 -19 -9 -91 -8 -107 1 -6 4 -14 4 -18 0 -12 -11 -67 -11 -59 1 4
6 1 7 -8 1 -20 -12 -61 -12 -78 0 -11 8 -13 8 -8 0 7 -12 -87 -14 -99 -2 -3 4
-14 4 -23 -1 -20 -10 -92 -8 -110 3 -10 6 -12 5 -7 -2 4 -7 1 -12 -8 -12 -8 0
-18 5 -21 10 -4 6 -12 7 -18 3 -18 -11 -51 -12 -64 -1 -7 5 -14 5 -18 -2 -4
-7 -12 -7 -26 0 -10 6 -19 7 -19 2 0 -10 -75 -10 -86 0 -4 4 -14 4 -23 -1 -21
-10 -162 -8 -180 3 -10 7 -12 5 -6 -5 8 -12 6 -12 -8 0 -9 7 -17 9 -17 4 0
-11 -75 -11 -86 -1 -4 4 -14 4 -23 -1 -14 -6 -166 -7 -181 -1 -3 1 -9 1 -15 0
-31 -7 -66 -6 -71 1 -3 5 -11 6 -17 2 -19 -12 -68 -12 -60 0 4 6 1 7 -8 1 -20
-12 -61 -12 -78 0 -11 8 -13 8 -8 0 7 -12 -87 -14 -99 -2 -3 4 -14 4 -23 -1
-20 -10 -92 -8 -110 3 -10 6 -12 5 -7 -2 4 -7 1 -12 -8 -12 -8 0 -18 5 -21 10
-4 6 -12 7 -18 3 -18 -11 -51 -12 -64 -1 -7 5 -14 5 -18 -2 -4 -7 -12 -7 -26
0 -10 6 -19 7 -19 2 0 -10 -69 -10 -85 0 -6 4 -17 3 -24 -1z"/>
<path d="M4280 7002 c0 -6 -10 -11 -22 -9 -16 1 -23 -3 -23 -18 0 -11 4 -26 9
-32 5 -8 4 -13 -3 -13 -7 0 -9 -5 -5 -12 11 -17 11 -58 1 -58 -4 0 -3 -9 3
-20 6 -11 7 -20 3 -20 -4 0 -8 -11 -8 -25 0 -14 4 -25 8 -25 4 0 3 -10 -4 -21
-8 -16 -8 -20 1 -14 9 6 9 2 1 -14 -9 -16 -9 -21 0 -21 8 0 8 -4 -1 -15 -8 -9
-8 -15 -2 -15 7 0 8 -10 2 -30 -5 -19 -5 -30 1 -30 6 0 5 -9 -2 -21 -8 -16 -8
-20 1 -14 9 6 9 2 1 -14 -9 -16 -9 -21 0 -21 8 0 8 -4 -1 -15 -8 -9 -8 -15 -2
-15 7 0 8 -10 2 -30 -6 -20 -5 -30 2 -30 6 0 6 -6 -2 -15 -10 -12 -10 -15 0
-15 10 0 10 -3 0 -15 -9 -11 -9 -15 -1 -15 8 0 9 -5 2 -19 -6 -10 -7 -21 -4
-25 10 -10 11 -46 1 -46 -5 0 -4 -9 2 -20 6 -11 7 -20 3 -20 -10 0 -10 -41 1
-58 4 -7 2 -12 -5 -12 -8 0 -8 -4 1 -15 10 -12 10 -15 0 -15 -10 0 -10 -3 0
-15 9 -11 9 -15 1 -15 -7 0 -9 -5 -5 -12 11 -17 11 -58 1 -58 -4 0 -3 -9 3
-20 6 -11 7 -20 3 -20 -4 0 -8 -11 -8 -25 0 -14 4 -25 9 -25 5 0 3 -7 -4 -15
-10 -12 -10 -15 0 -15 10 0 10 -3 0 -15 -9 -11 -9 -15 -1 -15 8 0 9 -5 1 -19
-6 -13 -7 -22 0 -26 6 -4 6 -15 0 -30 -6 -16 -6 -25 1 -25 6 0 6 -8 -2 -21 -8
-16 -8 -20 1 -14 9 6 9 2 1 -14 -9 -16 -9 -21 0 -21 8 0 8 -4 -1 -15 -8 -9 -8
-15 -2 -15 7 0 8 -10 2 -30 -5 -19 -5 -30 1 -30 6 0 5 -9 -2 -21 -8 -16 -8
-20 1 -14 9 6 9 2 1 -14 -9 -16 -9 -21 0 -21 8 0 8 -4 -1 -15 -7 -8 -9 -15 -4
-15 5 0 9 -11 9 -25 0 -14 -4 -25 -8 -25 -4 0 -3 -9 3 -20 6 -11 7 -20 3 -20
-10 0 -10 -41 1 -58 4 -7 2 -12 -5 -12 -8 0 -8 -4 1 -15 10 -12 10 -15 0 -15
-10 0 -10 -3 0 -15 9 -11 9 -15 1 -15 -7 0 -9 -5 -5 -12 11 -17 11 -58 1 -58
-4 0 -3 -9 3 -20 8 -14 8 -20 0 -20 -8 0 -8 -6 0 -20 8 -14 8 -20 0 -20 -8 0
-8 -6 0 -20 6 -11 7 -20 3 -20 -10 0 -10 -41 1 -58 4 -7 2 -12 -5 -12 -8 0 -8
-4 1 -15 10 -12 10 -15 0 -15 -10 0 -10 -3 0 -15 9 -11 9 -15 1 -15 -7 0 -9
-5 -5 -12 11 -17 11 -58 1 -58 -4 0 -3 -9 3 -20 6 -11 7 -20 3 -20 -4 0 -8
-11 -8 -25 0 -14 4 -25 9 -25 5 0 3 -7 -4 -15 -10 -12 -10 -15 0 -15 10 0 10
-3 0 -15 -9 -11 -9 -15 -1 -15 8 0 9 -5 2 -19 -6 -10 -7 -21 -4 -25 10 -10 11
-46 1 -46 -5 0 -4 -9 2 -20 6 -11 7 -20 3 -20 -10 0 -10 -41 1 -58 4 -7 2 -12
-5 -12 -8 0 -8 -4 1 -15 10 -12 10 -15 0 -15 -10 0 -10 -3 0 -15 9 -11 9 -15
1 -15 -7 0 -9 -5 -5 -12 11 -17 11 -58 1 -58 -4 0 -3 -9 3 -20 6 -11 7 -20 3
-20 -4 0 -8 -11 -8 -25 0 -14 4 -25 9 -25 5 0 3 -7 -4 -15 -10 -12 -10 -15 0
-15 10 0 10 -3 0 -15 -9 -11 -9 -15 -1 -15 8 0 9 -5 1 -19 -6 -13 -7 -22 0
-26 6 -4 6 -15 0 -30 -7 -17 -6 -25 1 -25 8 0 7 -5 -1 -15 -10 -12 -10 -15 0
-15 10 0 10 -3 0 -15 -9 -11 -9 -15 -1 -15 8 0 9 -5 2 -19 -6 -10 -7 -21 -4
-25 10 -10 11 -46 1 -46 -5 0 -4 -9 2 -20 6 -11 7 -20 3 -20 -10 0 -10 -41 1
-58 4 -7 2 -12 -5 -12 -8 0 -8 -4 1 -15 10 -12 10 -15 0 -15 -10 0 -10 -3 0
-15 9 -11 9 -15 1 -15 -7 0 -9 -5 -5 -12 11 -17 11 -58 1 -58 -4 0 -3 -9 3
-20 6 -11 7 -20 3 -20 -4 0 -8 -11 -8 -25 0 -14 4 -25 9 -25 5 0 3 -7 -4 -15
-10 -12 -10 -15 0 -15 10 0 10 -3 0 -15 -9 -11 -9 -15 -1 -15 8 0 9 -5 2 -19
-6 -10 -7 -21 -4 -25 10 -10 11 -46 1 -46 -5 0 -4 -9 2 -20 6 -11 7 -20 3 -20
-10 0 -10 -41 1 -58 4 -7 2 -12 -5 -12 -8 0 -8 -4 1 -15 10 -12 10 -15 0 -15
-10 0 -10 -3 0 -15 9 -11 9 -15 1 -15 -7 0 -9 -5 -5 -12 11 -17 11 -58 1 -58
-4 0 -3 -9 3 -20 8 -14 8 -20 0 -20 -8 0 -8 -6 0 -20 8 -14 8 -20 0 -20 -8 0
-8 -6 0 -20 6 -11 7 -20 3 -20 -10 0 -10 -41 1 -58 4 -7 3 -12 -2 -12 -6 0 -6
-9 1 -23 l10 -22 1281 1 c705 1 1289 2 1299 3 14 1 16 5 7 20 -7 14 -6 21 3
25 8 4 8 8 1 11 -11 6 -11 56 1 74 3 6 2 11 -3 11 -6 0 -7 14 -2 34 4 19 4 40
0 46 -4 7 -4 25 0 40 4 15 4 33 -1 41 -4 8 -3 19 3 26 6 7 6 13 1 13 -5 0 -9
9 -9 20 0 11 4 20 9 20 4 0 5 6 0 13 -11 17 -10 40 2 50 7 6 6 10 -1 13 -11 5
-11 55 1 73 3 6 2 11 -4 11 -6 0 -6 11 -1 30 5 17 5 30 1 30 -5 0 -7 15 -4 33
2 17 4 41 4 52 -1 11 0 31 0 45 1 31 1 38 -4 77 -2 18 2 35 7 38 8 3 8 7 0 10
-11 6 -11 56 1 74 3 6 1 11 -5 11 -6 0 -8 4 -5 10 9 14 12 90 3 90 -7 0 -3 34
7 50 3 6 1 10 -5 10 -8 0 -8 6 0 20 6 11 7 20 2 20 -4 0 -8 9 -8 20 0 11 4 20
9 20 4 0 5 6 0 13 -11 17 -10 40 2 50 7 6 6 10 -1 13 -11 5 -11 55 1 73 3 6 2
11 -4 11 -6 0 -6 11 -1 30 5 17 5 30 1 30 -9 0 -8 31 3 48 4 6 3 12 -1 12 -5
0 -9 9 -9 20 0 11 4 20 9 20 4 0 5 6 0 13 -11 17 -10 40 2 50 7 6 6 10 -1 13
-11 5 -11 55 1 73 3 6 2 11 -4 11 -6 0 -6 11 -1 30 5 17 5 30 1 30 -8 0 -6 53
3 76 2 6 1 17 -4 24 -4 7 -4 25 0 40 4 15 4 33 -1 41 -4 8 -3 19 3 26 6 7 6
13 1 13 -5 0 -9 9 -9 20 0 11 4 20 9 20 4 0 5 6 0 13 -11 17 -10 40 2 50 7 6
6 10 -1 13 -11 5 -11 55 1 73 3 6 2 11 -4 11 -6 0 -6 11 -1 30 5 17 5 30 1 30
-8 0 -6 53 3 76 2 6 1 17 -4 24 -4 7 -4 25 0 40 4 15 4 33 0 40 -4 7 -4 25 0
40 4 15 4 33 0 40 -4 7 -4 25 0 40 4 15 4 33 -1 41 -4 8 -3 19 3 26 6 7 6 13
1 13 -5 0 -9 9 -9 20 0 11 4 20 9 20 4 0 5 6 0 13 -11 17 -10 40 2 50 7 6 6
10 -1 13 -11 5 -11 55 1 73 3 6 2 11 -4 11 -6 0 -6 11 -1 30 5 17 5 30 1 30
-8 0 -6 53 3 76 2 6 1 17 -4 24 -4 7 -4 25 0 40 4 15 4 33 0 40 -4 7 -4 25 0
40 4 15 4 33 0 40 -4 7 -4 25 0 40 4 15 4 33 -1 41 -4 8 -3 19 3 26 6 7 6 13
1 13 -5 0 -9 9 -9 20 0 11 4 20 9 20 4 0 5 6 0 13 -11 17 -10 40 2 50 7 6 6
10 -1 13 -11 5 -11 55 1 73 3 6 2 11 -4 11 -6 0 -6 11 -1 30 5 17 5 30 1 30
-8 0 -6 53 3 76 2 6 1 17 -4 24 -4 7 -4 25 0 40 4 15 4 33 0 40 -4 7 -4 25 0
40 4 15 4 33 0 40 -4 7 -4 25 0 40 4 15 4 33 -1 41 -4 8 -3 19 3 26 7 9 7 13
-1 13 -6 0 -11 6 -11 14 0 8 -7 17 -16 20 -8 3 -12 2 -9 -4 3 -6 2 -10 -4 -10
-5 0 -13 5 -16 10 -4 6 -13 7 -23 2 -20 -10 -92 -10 -108 0 -6 4 -14 4 -18 0
-12 -11 -67 -11 -59 1 4 6 1 7 -8 1 -20 -12 -61 -12 -78 0 -11 8 -13 8 -8 0 7
-12 -87 -14 -99 -2 -3 4 -14 4 -23 -1 -20 -10 -92 -8 -110 3 -10 6 -12 5 -7
-2 4 -7 1 -12 -8 -12 -8 0 -18 5 -21 10 -4 6 -12 7 -18 3 -18 -11 -51 -12 -64
-1 -7 5 -14 5 -18 -2 -4 -7 -12 -7 -26 0 -10 6 -19 7 -19 2 0 -10 -75 -10 -86
0 -4 4 -14 4 -23 -1 -20 -9 -161 -8 -178 2 -6 4 -14 4 -17 -1 -6 -10 -57 -9
-75 2 -9 6 -12 5 -8 -1 7 -11 -102 -11 -120 0 -7 4 -14 3 -17 -2 -7 -11 -76
-9 -95 4 -9 5 -12 4 -8 -2 8 -13 -52 -11 -72 1 -9 6 -12 5 -8 -1 7 -11 -87
-12 -99 -1 -3 4 -14 4 -23 -1 -20 -10 -92 -8 -110 3 -7 5 -16 4 -20 -1 -7 -11
-76 -12 -86 -1 -4 4 -15 4 -24 -1 -14 -6 -166 -7 -181 -1 -3 1 -9 1 -15 0 -31
-7 -66 -6 -71 1 -3 5 -11 6 -17 2 -19 -12 -68 -12 -60 0 4 6 1 7 -8 1 -20 -12
-61 -12 -78 0 -11 8 -13 8 -8 0 7 -12 -87 -14 -99 -2 -3 4 -14 4 -23 -1 -20
-10 -92 -8 -110 3 -10 6 -12 5 -7 -2 10 -16 -17 -15 -32 0 -9 9 -12 9 -12 0z"/>
<path d="M8606 7003 c-3 -3 -16 -7 -28 -8 -20 -1 -22 -7 -23 -59 0 -32 3 -60
8 -63 4 -2 4 -10 -2 -16 -15 -19 -15 -21 -2 -44 6 -13 8 -23 3 -23 -10 0 -10
-110 0 -126 4 -6 4 -14 1 -18 -12 -11 -10 -70 1 -78 8 -6 8 -10 1 -15 -6 -5
-11 -21 -11 -38 0 -16 5 -33 11 -37 7 -5 7 -8 0 -8 -12 0 -14 -108 -3 -126 4
-6 4 -14 1 -18 -12 -11 -10 -70 1 -78 8 -6 8 -10 1 -15 -6 -5 -11 -21 -11 -38
0 -16 5 -33 11 -37 7 -5 7 -8 0 -8 -12 0 -14 -108 -3 -126 4 -6 4 -14 1 -18
-12 -11 -10 -70 1 -78 8 -6 8 -10 1 -15 -6 -5 -11 -21 -11 -38 0 -16 5 -33 11
-37 7 -5 7 -8 0 -8 -12 0 -14 -108 -3 -126 4 -6 4 -14 1 -18 -12 -11 -10 -70
1 -78 8 -6 8 -10 0 -15 -9 -7 -12 -129 -4 -158 1 -5 1 -12 0 -15 -8 -19 -4
-160 5 -160 7 0 7 -3 0 -8 -12 -8 -13 -91 -3 -108 4 -6 4 -14 0 -18 -11 -12
-9 -70 3 -78 7 -6 7 -10 0 -15 -12 -9 -14 -112 -3 -129 4 -6 4 -14 1 -18 -12
-11 -10 -70 1 -78 8 -6 8 -10 1 -15 -12 -9 -14 -112 -3 -129 4 -6 4 -14 0 -18
-11 -12 -9 -70 3 -78 7 -5 6 -8 -1 -8 -9 0 -12 -53 -4 -85 1 -5 1 -12 0 -15
-8 -19 -4 -160 5 -160 5 0 4 -4 -3 -9 -15 -9 -15 -17 -1 -43 5 -10 6 -18 1
-18 -10 0 -10 -110 0 -126 4 -6 4 -14 1 -18 -12 -11 -10 -70 1 -78 8 -6 8 -10
1 -15 -6 -5 -11 -21 -11 -38 0 -16 5 -33 11 -37 7 -5 7 -8 0 -8 -12 0 -14
-108 -3 -126 4 -6 4 -14 1 -18 -12 -11 -10 -70 1 -78 8 -6 8 -10 1 -15 -14
-10 -14 -66 0 -75 7 -5 7 -8 0 -8 -12 0 -14 -108 -3 -126 4 -6 4 -14 1 -18
-12 -11 -10 -70 1 -78 8 -6 8 -10 1 -15 -6 -5 -11 -21 -11 -38 0 -16 5 -33 11
-37 7 -5 7 -8 0 -8 -12 0 -14 -108 -2 -127 4 -6 1 -14 -5 -16 -10 -4 -10 -8
-1 -14 8 -6 2566 -10 2594 -4 3 0 5 35 4 76 -1 47 3 75 9 75 8 0 8 3 1 8 -15
10 -15 784 0 794 7 5 7 8 0 8 -14 0 -14 230 0 230 7 0 7 3 0 8 -14 10 -14 232
0 232 7 0 7 3 0 8 -15 10 -15 784 0 794 7 5 7 8 0 8 -14 0 -14 230 0 230 7 0
7 3 0 8 -14 10 -14 232 0 232 7 0 7 3 0 8 -15 10 -15 784 0 794 7 5 7 8 0 8
-14 0 -14 222 0 232 7 5 6 8 -1 8 -7 0 -10 22 -9 59 2 48 -1 60 -18 70 -10 7
-17 8 -14 4 7 -11 -88 -11 -99 -1 -3 4 -14 4 -23 -1 -20 -10 -92 -8 -110 3 -7
5 -16 4 -20 -1 -7 -11 -76 -12 -86 -1 -4 4 -15 4 -24 -1 -14 -6 -166 -7 -181
-1 -3 1 -9 1 -15 0 -31 -7 -66 -6 -71 1 -3 5 -11 6 -17 2 -19 -12 -68 -12 -60
0 4 6 1 7 -8 1 -20 -12 -61 -12 -78 0 -11 8 -13 8 -8 0 7 -12 -87 -14 -99 -2
-3 4 -14 4 -23 -1 -20 -10 -92 -8 -110 3 -10 6 -12 5 -7 -2 4 -7 1 -12 -8 -12
-8 0 -18 5 -21 10 -4 6 -12 7 -18 3 -18 -11 -51 -12 -64 -1 -7 5 -14 5 -18 -2
-4 -7 -12 -7 -26 0 -10 6 -19 7 -19 2 0 -10 -75 -10 -86 0 -4 4 -14 4 -23 -1
-20 -9 -161 -8 -178 2 -6 4 -14 4 -17 -1 -6 -10 -57 -9 -75 2 -9 6 -12 5 -8
-1 7 -11 -102 -11 -120 0 -7 4 -14 3 -17 -2 -7 -11 -76 -9 -95 4 -9 5 -12 4
-8 -2 8 -13 -52 -11 -72 1 -9 6 -12 5 -8 -1 7 -11 -87 -12 -99 -1 -3 4 -14 4
-23 -1 -19 -9 -91 -8 -108 2 -6 4 -14 3 -17 -1 -6 -10 -46 -10 -62 1 -6 3 -14
3 -18 -1 -12 -11 -67 -11 -59 1 4 6 1 7 -8 1 -20 -12 -61 -12 -78 0 -11 8 -13
8 -8 0 7 -12 -80 -13 -99 -2 -6 4 -14 5 -18 1z"/>
</g>
</svg>
